<svg width="17" height="14" viewBox="0 0 17 14" fill="none" xmlns="http://www.w3.org/2000/svg">
<path d="M8.80385 8.85744V8.50174C8.80385 8.06865 8.45228 7.71741 8.01951 7.71741C7.58611 7.71741 7.23486 8.06865 7.23486 8.50174V8.85744C7.23486 9.29021 7.58611 9.64178 8.01951 9.64178C8.45228 9.64178 8.80385 9.29053 8.80385 8.85744Z" fill="#F7F7F7"/>
<path d="M9.34153 9.29108C9.16797 9.86014 8.64413 10.2783 8.01934 10.2783C7.39423 10.2783 6.87039 9.86046 6.69651 9.29108H1.2928C0.951748 9.29108 0.629481 9.21179 0.340332 9.07422V12.6622C0.340332 13.3627 0.913535 13.9359 1.61412 13.9359H14.4239C15.1245 13.9359 15.6977 13.3627 15.6977 12.6622V9.07454C15.4086 9.21211 15.0863 9.2914 14.7456 9.2914L9.34153 9.29108Z" fill="#F7F7F7"/>
<path d="M14.6922 2.84834H11.6345C11.4501 1.69366 10.4493 0.807739 9.24362 0.807739H6.79349C5.58754 0.807739 4.58762 1.69366 4.4026 2.84834H1.34552C0.615641 2.84834 0.0185547 3.42154 0.0185547 4.12213V7.06234C0.0185547 7.76547 0.588891 8.33612 1.29234 8.33612H6.63586C6.65401 7.97023 6.81133 7.64 7.06003 7.40212C7.06768 7.39511 7.07659 7.38906 7.08455 7.38206C7.13964 7.33142 7.19696 7.28366 7.2597 7.24226C7.28199 7.22729 7.30747 7.2171 7.33071 7.20373C7.3823 7.17411 7.43325 7.14322 7.48898 7.1203C7.53261 7.10214 7.57974 7.09163 7.62559 7.07794C7.66508 7.06616 7.70266 7.05055 7.74374 7.04227C7.8329 7.02412 7.92493 7.01457 8.01887 7.01457C8.11313 7.01457 8.20485 7.02444 8.29369 7.04227C8.33445 7.05055 8.37235 7.06616 8.41215 7.07794C8.45801 7.09163 8.5045 7.10214 8.54877 7.12061C8.60418 7.14354 8.65481 7.17411 8.7064 7.20373C8.72965 7.21742 8.75512 7.22761 8.77805 7.24258C8.84078 7.28366 8.89778 7.33142 8.95288 7.38206C8.96084 7.38938 8.97071 7.39511 8.97771 7.40276C9.22674 7.64095 9.38373 7.97023 9.40188 8.33676H14.7454C15.4489 8.33676 16.0192 7.76642 16.0192 7.06297V4.12276C16.0192 3.42154 15.4221 2.84834 14.6922 2.84834ZM5.62957 2.84834C5.79198 2.35762 6.24959 2 6.79413 2H9.24425C9.78848 2 10.2461 2.35762 10.4085 2.84834H5.62957Z" fill="#F7F7F7"/>
</svg>
