<svg width="25" height="25" viewBox="0 0 25 25" fill="none" xmlns="http://www.w3.org/2000/svg">
<g clip-path="url(#clip0)">
<path d="M8.76312 13.5182C8.76312 13.2176 8.51926 12.974 8.21837 12.974H6.3174C6.01686 12.974 5.77295 13.2176 5.77295 13.5182V15.4189C5.77295 15.72 6.01686 15.9636 6.3174 15.9636H8.21837C8.51926 15.9636 8.76312 15.72 8.76312 15.4189V13.5182Z" fill="white"/>
<path d="M13.5143 13.5182C13.5143 13.2176 13.2704 12.974 12.9701 12.974H11.0689C10.7683 12.974 10.5244 13.2176 10.5244 13.5182V15.4189C10.5244 15.72 10.7683 15.9636 11.0689 15.9636H12.9701C13.2704 15.9636 13.5143 15.72 13.5143 15.4189V13.5182Z" fill="white"/>
<path d="M18.2651 13.5182C18.2651 13.2176 18.0212 12.974 17.7206 12.974H15.8196C15.5188 12.974 15.2749 13.2176 15.2749 13.5182V15.4189C15.2749 15.72 15.5188 15.9636 15.8196 15.9636H17.7206C18.0212 15.9636 18.2651 15.72 18.2651 15.4189V13.5182Z" fill="white"/>
<path d="M8.76312 18.2694C8.76312 17.9682 8.51926 17.7249 8.21837 17.7249H6.3174C6.01686 17.7249 5.77295 17.9682 5.77295 18.2694V20.1697C5.77295 20.4706 6.01686 20.7142 6.3174 20.7142H8.21837C8.51926 20.7142 8.76312 20.4705 8.76312 20.1697V18.2694Z" fill="white"/>
<path d="M13.5143 18.2694C13.5143 17.9682 13.2704 17.7249 12.9701 17.7249H11.0689C10.7683 17.7249 10.5244 17.9682 10.5244 18.2694V20.1697C10.5244 20.4706 10.7683 20.7142 11.0689 20.7142H12.9701C13.2704 20.7142 13.5143 20.4705 13.5143 20.1697V18.2694Z" fill="white"/>
<path d="M18.2651 18.2694C18.2651 17.9682 18.0212 17.7249 17.7209 17.7249H15.8196C15.5188 17.7249 15.2749 17.9682 15.2749 18.2694V20.1697C15.2749 20.4706 15.5188 20.7142 15.8196 20.7142H17.7209C18.0212 20.7142 18.2651 20.4705 18.2651 20.1697V18.2694Z" fill="white"/>
<path d="M21.6642 2.94975V5.85295C21.6642 7.16516 20.5997 8.2226 19.2877 8.2226H17.7885C16.4764 8.2226 15.3977 7.16516 15.3977 5.85295V2.93933H8.6405V5.85295C8.6405 7.16516 7.56192 8.2226 6.25 8.2226H4.75052C3.43855 8.2226 2.37408 7.16516 2.37408 5.85295V2.94975C1.2274 2.98432 0.285156 3.93315 0.285156 5.0994V22.1135C0.285156 23.3017 1.2482 24.2775 2.43637 24.2775H21.6019C22.7883 24.2775 23.7531 23.2996 23.7531 22.1135V5.0994C23.7531 3.93315 22.8109 2.98432 21.6642 2.94975ZM20.9679 21.054C20.9679 21.5675 20.5516 21.984 20.0379 21.984H3.9594C3.44573 21.984 3.0294 21.5675 3.0294 21.054V12.2656C3.0294 11.7519 3.44568 11.3353 3.9594 11.3353H20.0378C20.5515 11.3353 20.9678 11.7519 20.9678 12.2656L20.9679 21.054Z" fill="white"/>
<path d="M4.74523 6.66621H6.22815C6.67825 6.66621 7.04321 6.3018 7.04321 5.8517V1.09228C7.04321 0.642123 6.67825 0.277466 6.22815 0.277466H4.74523C4.29508 0.277466 3.93018 0.642123 3.93018 1.09228V5.8517C3.93018 6.3018 4.29508 6.66621 4.74523 6.66621Z" fill="white"/>
<path d="M17.7696 6.66621H19.2525C19.7023 6.66621 20.0673 6.3018 20.0673 5.8517V1.09228C20.0673 0.642123 19.7024 0.277466 19.2525 0.277466H17.7696C17.3195 0.277466 16.9546 0.642123 16.9546 1.09228V5.8517C16.9546 6.3018 17.3195 6.66621 17.7696 6.66621Z" fill="white"/>
</g>
<defs>
<clipPath id="clip0">
<rect width="24" height="24" fill="white" transform="translate(0.019043 0.277466)"/>
</clipPath>
</defs>
</svg>
