<svg width="16" height="16" viewBox="0 0 16 16" fill="none" xmlns="http://www.w3.org/2000/svg">
<path d="M15.0527 15.4922H2.01425C1.17508 15.4922 0.492188 14.8093 0.492188 13.9701V0.931641C0.492188 0.688934 0.688934 0.492188 0.931641 0.492188C1.17435 0.492188 1.37109 0.688934 1.37109 0.931641V13.9701C1.37109 14.3248 1.65958 14.6133 2.01425 14.6133H15.0527C15.2954 14.6133 15.4922 14.81 15.4922 15.0527C15.4922 15.2954 15.2954 15.4922 15.0527 15.4922Z" fill="white"/>
<path d="M6.19238 10.5501C6.30518 10.5594 6.41321 10.5992 6.50504 10.6653L8.27557 11.9421L10.7598 10.6467C10.883 10.5823 11.0255 10.5613 11.162 10.5869L14.284 11.1388H14.6849V7.27911H14.3233L11.6436 9.09039C11.5527 9.15659 11.4458 9.19659 11.3334 9.20657L8.14868 9.48883C8.13037 9.49048 8.11215 9.49121 8.09393 9.4913C7.87009 9.4913 7.66125 9.37009 7.55103 9.17233L6.45532 7.20569L2.59436 6.65491H2.18604V10.2606L2.66129 10.2613L6.19238 10.5501Z" fill="white"/>
<path d="M2.64288 5.78051L6.70599 6.35363C6.89697 6.38091 7.06717 6.49774 7.1611 6.66647L8.23749 8.59869L11.1888 8.33721L13.9993 6.43731H14.6849V5.27313C14.6849 5.05431 14.5732 4.85583 14.3864 4.74221C14.2041 4.63143 13.9833 4.62127 13.7923 4.7141L11.3257 5.81521L9.20648 5.44991L7.22601 2.75717C7.08209 2.56143 6.83545 2.46722 6.5975 2.5173L2.6795 3.34173C2.39368 3.40179 2.18604 3.65759 2.18604 3.94973V5.77886L2.64288 5.78051Z" fill="white"/>
<path d="M14.1689 12.0109L11.0884 11.4666L8.54108 12.7949C8.44998 12.8424 8.35138 12.8658 8.25323 12.8659C8.12561 12.8659 7.99881 12.8262 7.89032 12.7479L6.04938 11.4203L2.60754 11.1388H2.18604V13.2605C2.18604 13.5571 2.42728 13.7982 2.72363 13.7982H14.1473C14.4437 13.7982 14.6849 13.5571 14.6849 13.2605V12.0128L14.1689 12.0109Z" fill="white"/>
</svg>
