<svg width="16" height="16" viewBox="0 0 16 16" fill="none" xmlns="http://www.w3.org/2000/svg">
<path d="M15 0H3C2.44775 0 2 0.44775 2 1H1C0.44775 1 0 1.44775 0 2C0 2.55225 0.44775 3 1 3H2V5H1C0.44775 5 0 5.44775 0 6C0 6.55225 0.44775 7 1 7H2V9H1C0.44775 9 0 9.44775 0 10C0 10.5522 0.44775 11 1 11H2V13H1C0.44775 13 0 13.4478 0 14C0 14.5522 0.44775 15 1 15H2C2 15.5522 2.44775 16 3 16H15C15.5522 16 16 15.5522 16 15V1C16 0.44775 15.5522 0 15 0ZM9.5 4C10.3284 4 11 4.6715 11 5.5C11 6.32837 10.3284 7 9.5 7C8.6715 7 8 6.32837 8 5.5C8 4.6715 8.6715 4 9.5 4ZM12.5 12H6.5V10C6.5 8.71484 7.964 8.47728 8.5 8H10.5C11.036 8.47728 12.5 8.71484 12.5 10V12Z" fill="white"/>
</svg>
