<svg width="25" height="25" viewBox="0 0 25 25" fill="none" xmlns="http://www.w3.org/2000/svg">
<g clip-path="url(#clip0)">
<path d="M13.1962 14.639V14.1055C13.1962 13.4558 12.6689 12.929 12.0198 12.929C11.3696 12.929 10.8428 13.4558 10.8428 14.1055V14.639C10.8428 15.2882 11.3696 15.8155 12.0198 15.8155C12.6689 15.8155 13.1962 15.2886 13.1962 14.639Z" fill="#0B2248"/>
<path d="M14.0033 15.2895C13.7429 16.1431 12.9572 16.7703 12.02 16.7703C11.0823 16.7703 10.2965 16.1436 10.0357 15.2895H1.93017C1.41859 15.2895 0.935188 15.1706 0.501465 14.9642V20.3461C0.501465 21.397 1.36127 22.2568 2.41214 22.2568H21.6269C22.6777 22.2568 23.5375 21.397 23.5375 20.3461V14.9647C23.1038 15.1711 22.6204 15.29 22.1093 15.29L14.0033 15.2895Z" fill="#0B2248"/>
<path d="M22.0291 5.62536H17.4425C17.1659 3.89333 15.6646 2.56445 13.8561 2.56445H10.181C8.37203 2.56445 6.87215 3.89333 6.59462 5.62536H2.009C0.914184 5.62536 0.0185547 6.48516 0.0185547 7.53603V11.9463C0.0185547 13.001 0.87406 13.857 1.92923 13.857H9.94452C9.97174 13.3082 10.2077 12.8128 10.5808 12.456C10.5922 12.4455 10.6056 12.4364 10.6176 12.4259C10.7002 12.35 10.7862 12.2783 10.8803 12.2162C10.9137 12.1938 10.9519 12.1785 10.9868 12.1584C11.0642 12.114 11.1406 12.0677 11.2242 12.0333C11.2896 12.0061 11.3603 11.9903 11.4291 11.9698C11.4883 11.9521 11.5447 11.9287 11.6063 11.9163C11.7401 11.889 11.8781 11.8747 12.019 11.8747C12.1604 11.8747 12.298 11.8895 12.4313 11.9163C12.4924 11.9287 12.5492 11.9521 12.609 11.9698C12.6777 11.9903 12.7475 12.0061 12.8139 12.0338C12.897 12.0682 12.9729 12.114 13.0503 12.1584C13.0852 12.179 13.1234 12.1943 13.1578 12.2167C13.2519 12.2783 13.3374 12.35 13.42 12.4259C13.432 12.4369 13.4468 12.4455 13.4573 12.457C13.8308 12.8143 14.0663 13.3082 14.0935 13.858H22.1088C23.164 13.858 24.0195 13.0025 24.0195 11.9473V7.53699C24.0195 6.48516 23.1239 5.62536 22.0291 5.62536ZM8.43508 5.62536C8.67869 4.88927 9.3651 4.35285 10.1819 4.35285H13.8571C14.6734 4.35285 15.3598 4.88927 15.6035 5.62536H8.43508Z" fill="#0B2248"/>
</g>
<defs>
<clipPath id="clip0">
<rect width="24" height="24" fill="white" transform="translate(0.019043 0.410645)"/>
</clipPath>
</defs>
</svg>
