<svg width="33" height="33" viewBox="0 0 33 33" fill="none" xmlns="http://www.w3.org/2000/svg">
<g clip-path="url(#clip0)">
<path d="M1.84555 7.9411H31.1027C31.857 7.9411 32.4741 7.32395 32.4741 6.56967C32.4741 5.81538 31.857 5.19824 31.1027 5.19824H1.84555C1.09126 5.19824 0.474121 5.81538 0.474121 6.56967C0.474121 7.32395 1.09126 7.9411 1.84555 7.9411Z" fill="white"/>
<path d="M1.84555 18.2268H31.1027C31.857 18.2268 32.4741 17.6096 32.4741 16.8554C32.4741 16.1011 31.857 15.4839 31.1027 15.4839H1.84555C1.09126 15.4839 0.474121 16.1011 0.474121 16.8554C0.474121 17.6096 1.09126 18.2268 1.84555 18.2268Z" fill="white"/>
<path d="M1.84555 28.5125H31.1027C31.857 28.5125 32.4741 27.8954 32.4741 27.1411C32.4741 26.3868 31.857 25.7697 31.1027 25.7697H1.84555C1.09126 25.7697 0.474121 26.3868 0.474121 27.1411C0.474121 27.8954 1.09126 28.5125 1.84555 28.5125Z" fill="white"/>
</g>
<defs>
<clipPath id="clip0">
<rect width="32" height="32" fill="white" transform="translate(0.474121 0.855408)"/>
</clipPath>
</defs>
</svg>
