<svg width="26" height="25" viewBox="0 0 26 25" fill="none" xmlns="http://www.w3.org/2000/svg">
<path d="M11.888 12.8342L1.19041 23.5318C0.893214 23.829 0.893214 24.3105 1.19041 24.6077C1.33882 24.7565 1.53368 24.8305 1.72816 24.8305C1.92302 24.8305 2.11751 24.7565 2.26592 24.6077L13.044 13.8296L23.8221 24.6077C23.9708 24.7565 24.1653 24.8305 24.3598 24.8305C24.5543 24.8305 24.7491 24.7565 24.8976 24.6077C25.1948 24.3105 25.1948 23.829 24.8976 23.5318L14.2003 12.8342L24.9047 2.129C25.2019 1.8318 25.2019 1.35032 24.9047 1.05312C24.6075 0.7563 24.1261 0.7563 23.8292 1.05312L13.0444 11.8387L2.25836 1.0535C1.96116 0.756678 1.48006 0.756678 1.18286 1.0535C0.885661 1.3507 0.885661 1.83218 1.18286 2.12938L11.888 12.8342Z" fill="white"/>
</svg>
