<svg width="33" height="33" viewBox="0 0 33 33" fill="none" xmlns="http://www.w3.org/2000/svg">
<g clip-path="url(#clip0)">
<path d="M1.39047 7.8692H30.6476C31.4019 7.8692 32.019 7.25206 32.019 6.49777C32.019 5.74349 31.4019 5.12634 30.6476 5.12634H1.39047C0.636185 5.12634 0.019043 5.74349 0.019043 6.49777C0.019043 7.25206 0.636185 7.8692 1.39047 7.8692Z" fill="#0069BF"/>
<path d="M1.39047 18.1548H30.6476C31.4019 18.1548 32.019 17.5377 32.019 16.7834C32.019 16.0291 31.4019 15.412 30.6476 15.412H1.39047C0.636185 15.412 0.019043 16.0291 0.019043 16.7834C0.019043 17.5377 0.636185 18.1548 1.39047 18.1548Z" fill="#0069BF"/>
<path d="M1.39047 28.4406H30.6476C31.4019 28.4406 32.019 27.8235 32.019 27.0692C32.019 26.3149 31.4019 25.6978 30.6476 25.6978H1.39047C0.636185 25.6978 0.019043 26.3149 0.019043 27.0692C0.019043 27.8235 0.636185 28.4406 1.39047 28.4406Z" fill="#0069BF"/>
</g>
<defs>
<clipPath id="clip0">
<rect width="32" height="32" fill="white" transform="translate(0.019043 0.783569)"/>
</clipPath>
</defs>
</svg>
