<svg width="29" height="29" viewBox="0 0 29 29" fill="none" xmlns="http://www.w3.org/2000/svg">
<g clip-path="url(#clip0)">
<path d="M26.31 23.9429L24.2976 20.5884C23.3681 19.0401 22.877 17.2667 22.877 15.4617V12.5233C22.877 8.81366 20.4016 5.67601 17.0166 4.66449V2.56062C17.0166 1.26779 15.9652 0.216431 14.6724 0.216431C13.3795 0.216431 12.3282 1.26779 12.3282 2.56062V4.66449C8.94325 5.67601 6.46781 8.81366 6.46781 12.5233V15.4617C6.46781 17.2667 5.97669 19.0389 5.0484 20.5873L3.03595 23.9418C2.92695 24.1235 2.92458 24.3485 3.02892 24.5325C3.13325 24.7165 3.32664 24.8302 3.53762 24.8302H25.8072C26.0182 24.8302 26.2127 24.7166 26.317 24.5337C26.4214 24.3508 26.4179 24.1234 26.31 23.9429Z" fill="#0069BF"/>
<path d="M10.9814 26.0023C11.6425 27.3831 13.042 28.3465 14.6723 28.3465C16.3026 28.3465 17.7022 27.3831 18.3632 26.0023H10.9814Z" fill="#0069BF"/>
</g>
<defs>
<clipPath id="clip0">
<rect width="28.13" height="28.13" fill="white" transform="translate(0.607666 0.216431)"/>
</clipPath>
</defs>
</svg>
