<svg width="13" height="17" viewBox="0 0 13 17" fill="none" xmlns="http://www.w3.org/2000/svg">
<path d="M6.65583 7.94523C8.43475 7.94523 9.87699 6.19355 9.87699 4.03273C9.87699 1.87186 9.40348 0.120178 6.65583 0.120178C3.90817 0.120178 3.43457 1.87186 3.43457 4.03273C3.43457 6.19355 4.87681 7.94523 6.65583 7.94523Z" fill="white"/>
<path d="M0.571678 13.9192C0.57113 13.7874 0.570581 13.8821 0.571678 13.9192V13.9192Z" fill="white"/>
<path d="M12.7397 14.0221C12.7415 13.986 12.7403 13.7718 12.7397 14.0221V14.0221Z" fill="white"/>
<path d="M12.7329 13.7612C12.6732 9.99696 12.1816 8.92437 8.41965 8.24542C8.41965 8.24542 7.8901 8.92021 6.65581 8.92021C5.42153 8.92021 4.89188 8.24542 4.89188 8.24542C1.17097 8.91697 0.649461 9.97365 0.58089 13.6389C0.575267 13.9382 0.572661 13.9539 0.571655 13.9192C0.571884 13.9843 0.572158 14.1047 0.572158 14.3146C0.572158 14.3146 1.46779 16.1202 6.65581 16.1202C11.8437 16.1202 12.7395 14.3146 12.7395 14.3146C12.7395 14.1797 12.7396 14.0859 12.7397 14.0221C12.7387 14.0436 12.7367 14.0019 12.7329 13.7612Z" fill="white"/>
</svg>
