<svg width="16" height="16" viewBox="0 0 16 16" fill="none" xmlns="http://www.w3.org/2000/svg">
<path d="M15.7431 3.38521L13.1081 6.02022L10.8031 5.1968L9.97977 2.89189L12.6148 0.25688C10.886 -0.321483 8.90218 0.07657 7.52555 1.45325C6.17433 2.80447 5.76605 4.74044 6.29812 6.44627C6.22648 6.50268 6.15704 6.56341 6.09093 6.62953L0.679247 12.0412C-0.226416 12.9468 -0.226416 14.4151 0.679247 15.3207C1.58491 16.2264 3.05328 16.2264 3.95894 15.3207L9.37062 9.90907C9.43673 9.84295 9.49736 9.77357 9.55383 9.70192C11.2597 10.234 13.1956 9.82566 14.5468 8.47444C15.9234 7.09775 16.3215 5.11408 15.7431 3.38521Z" fill="white"/>
</svg>
